<svg xmlns="http://www.w3.org/2000/svg" width="54" height="72"><path d="M29.71 52.98c-.5 5.56-1.54 10.45-3.41 14.72-.63 1.41-1.76 2.76-2.28 4.3h-.23v-1.13c.43-.67.22-1.58.45-2.49 1.13-4.36 1.22-10.17-.68-13.81-3.24-6.23-9.73-4.13-16.18-6.8-2.53-1.04-4.39-3.19-5.7-5.43-.46-1.28-.91-2.57-1.37-3.85-.71-2.71-.06-6.2.69-8.15 3.1-8.13 10.87-11.71 20.28-7.25v-.68c-.81-1.09-.54-2.73-.91-4.3C19.38 13.89 18.62.05 23.33 0c1.28.93 3.73.88 3.88 2.94-.38.41-.4.57-.46 1.36h.23v-.22C27.96 3.04 28.23.7 29.94.45c1.37 1.22 3.69 1.47 4.1 3.63-1.14 1.44-2.26 3.97-2.73 5.88h.45c1.43-1.88 7.32-7.25 10.03-6.79.81 1.29 1.64 2.57 2.05 4.3-1.43.51-2.09 1.9-3.19 2.72-4 3-7.23 7.37-9.8 11.77h.69c1.57-1.22 7.97-1.81 10.71-1.13 7.22 1.79 9.25 4.27 10.94 11.55.23 1.01.54 3.39.23 4.75-2.19 9.44-6.79 14.21-16.41 16.3-2.57.56-5.14-.33-7.3-.45z" fill="#F5F5F5"/></svg>